<svg xmlns="http://www.w3.org/2000/svg" viewBox="0 0 64 64" role="img" aria-label="Geek VPN">
  <rect width="64" height="64" rx="14" fill="#00A6FF"/>
  <g fill="#fff">
    <!-- Hair: three swept strands, drawn as filled curves rather than strokes
         so they stay solid at 16px, where a 2px stroke disappears. -->
    <path d="M14 30c-1-8 4-15 12-16 7-1 11 2 15 1-3 5-8 7-13 7 6 1 11-1 15-4-1 6-6 10-12 11z"/>
    <path d="M43 15c4 1 7 4 8 8-2-1-4-2-6-2 3 3 4 6 4 10-2-2-4-4-7-5z"/>
    <path d="M13 24c-2 2-3 5-3 8l3-2 1 3 2-4 2 3z"/>
    <!-- Glasses. The lenses are rounded on the bottom only, which is the shape
         that reads as this logo rather than as generic spectacles. -->
    <path d="M12 34h40v4H12z"/>
    <path d="M14 36h16v8a8 8 0 0 1-16 0zm4 4v4a4 4 0 0 0 8 0v-4z"/>
    <path d="M34 36h16v8a8 8 0 0 1-16 0zm4 4v4a4 4 0 0 0 8 0v-4z"/>
    <circle cx="22" cy="44" r="3"/>
    <circle cx="42" cy="44" r="3"/>
  </g>
</svg>
